<?xml version="1.0" encoding="UTF-8" standalone="no"?>
<!-- Created with Inkscape (http://www.inkscape.org/) -->

<svg
   xmlns:dc="http://purl.org/dc/elements/1.1/"
   xmlns:cc="http://creativecommons.org/ns#"
   xmlns:rdf="http://www.w3.org/1999/02/22-rdf-syntax-ns#"
   xmlns:svg="http://www.w3.org/2000/svg"
   xmlns="http://www.w3.org/2000/svg"
   xmlns:sodipodi="http://sodipodi.sourceforge.net/DTD/sodipodi-0.dtd"
   xmlns:inkscape="http://www.inkscape.org/namespaces/inkscape"
   version="1.1"
   id="svg2"
   width="340.62225"
   height="344.42743"
   viewBox="0 0 340.62225 344.42743"
   sodipodi:docname="favicon.svg"
   inkscape:version="0.92.4 5da689c313, 2019-01-14">
  <metadata
     id="metadata8">
    <rdf:RDF>
      <cc:Work
         rdf:about="">
        <dc:format>image/svg+xml</dc:format>
        <dc:type
           rdf:resource="http://purl.org/dc/dcmitype/StillImage" />
        <dc:title></dc:title>
      </cc:Work>
    </rdf:RDF>
  </metadata>
  <defs
     id="defs6" />
  <sodipodi:namedview
     pagecolor="#ffffff"
     bordercolor="#666666"
     borderopacity="1"
     objecttolerance="10"
     gridtolerance="10"
     guidetolerance="10"
     inkscape:pageopacity="0"
     inkscape:pageshadow="2"
     inkscape:window-width="1247"
     inkscape:window-height="1158"
     id="namedview4"
     showgrid="false"
     fit-margin-top="0"
     fit-margin-left="0"
     fit-margin-right="0"
     fit-margin-bottom="0"
     inkscape:zoom="1.3485714"
     inkscape:cx="147.65711"
     inkscape:cy="29.896962"
     inkscape:window-x="2193"
     inkscape:window-y="290"
     inkscape:window-maximized="0"
     inkscape:current-layer="svg2" />
  <path
     style="fill:#000000"
     d="m 116.08762,341.83852 -3.07673,-2.5889 v -38.84741 -38.84742 l 2.91252,-7.56369 2.91251,-7.56369 h -6.41251 c -10.4213,0 -12.642355,-4.22677 -8.35364,-15.89733 3.59533,-9.78369 6.99079,-12.36082 17.26324,-13.10267 l 6.9235,-0.5 5.20882,-14 c 6.94961,-18.67882 9.42259,-24.38921 12.20124,-28.17405 4.4892,-6.11479 20.4236,-11.56805 38.84432,-13.29376 14.24749,-1.33475 60.02961,-1.32965 74.07632,0.008 18.35592,1.74834 34.87029,7.3785 38.62599,13.16857 1.48636,2.29147 10.60269,24.76115 14.82529,36.54098 l 2.24038,6.25 h 5.89813 c 10.7823,0 15.11585,3.32728 18.81628,14.44707 3.53279,10.61631 1.01372,14.55319 -9.31189,14.55319 -5.21642,0 -5.80139,0.19868 -5.15257,1.75 5.57459,13.32894 5.43836,12.02065 5.46098,52.44424 l 0.0211,37.69423 -2.41342,2.80577 -2.41341,2.80576 H 308.5109 291.83773 l -2.41341,-2.80576 c -2.11325,-2.45679 -2.41343,-3.79387 -2.41343,-10.75 v -7.94424 h -65.5 -65.5 v 7.04966 c 0,8.00971 -1.58039,11.98249 -5.47206,13.75565 -1.64443,0.74926 -7.98213,1.19469 -16.99827,1.19469 -14.00731,0 -14.45517,-0.0664 -17.45294,-2.58889 z m 60.59199,-53.21394 c 3.03736,-1.65338 3.95157,-6.60154 1.82057,-9.85385 -2.09872,-3.20306 -24.12242,-13.93854 -31.68678,-15.44576 -9.93485,-1.97955 -12.82766,0.94652 -12.77071,12.91754 0.0438,9.2035 2.34138,11.65888 12.39731,13.24866 7.18381,1.13572 27.63807,0.54955 30.23961,-0.86659 z m 126.07018,-0.86328 c 5.18341,-2.53805 6.47107,-5.45441 5.8873,-13.33389 -0.63079,-8.51429 -1.17794,-9.69696 -5.08232,-10.98552 -4.39137,-1.44928 -10.14567,-0.0906 -21.80988,5.14958 -14.91528,6.70076 -18.734,9.67254 -18.734,14.57907 0,5.81786 5.03058,7.32378 22.74679,6.80932 10.23854,-0.29731 14.09733,-0.80113 16.99211,-2.21856 z m -42.7389,-53.80755 c 14.46913,-1.42957 29.07736,-3.69169 36.33356,-5.62633 2.60515,-0.69458 3.66432,-1.46315 3.30539,-2.39851 -0.2905,-0.75702 -1.0491,-3.31097 -1.68579,-5.67544 -1.53938,-5.71682 -8.26579,-22.52142 -11.88254,-29.68616 -3.83559,-7.59827 -6.94605,-9.07691 -24.57062,-11.68031 -22.71827,-3.3558 -69.66408,-2.80245 -87.8622,1.03563 -12.07069,2.54577 -13.45854,3.64687 -19.28984,15.30423 -4.66927,9.33435 -11.34796,27.44556 -11.34796,30.7733 0,0.73329 1.6875,1.81202 3.75,2.3972 6.00759,1.70448 26.84927,4.89975 38.25,5.86416 17.12352,1.44852 58.96185,1.27683 75,-0.30777 z m -245.923268,5.88477 -3.07673,-2.5889 v -39.2387 -39.23869 l 2.5,-6.15254 c 1.375,-3.3839 2.5,-6.61148 2.5,-7.17241 0,-0.57984 -2.58873,-1.01987 -6,-1.01987 -10.34067963,0 -12.4219496,-4.92904 -7.3893898,-17.50015 3.4665695,-8.65934 6.4231795,-10.75397 16.1804698,-11.4632 l 7.3831,-0.53665 4.429,-12 c 10.08708,-27.330066 12.67634,-32.071466 19.3824,-35.492646 6.66991,-3.40273 20.16319,-6.77857 31.70679,-7.9326 14.336813,-1.43328 61.278448,-1.43328 75.615258,0 18.01364,1.80086 33.53789,7.04362 37.46538,12.65261 1.821,2.60062 10.23998,23.03335 15.25459,37.022636 l 2.24038,6.25 6.61601,0.004 c 7.18516,0.004 11.75795,1.96061 14.487,6.19852 2.62775,4.08062 5.69455,14.68843 5.02164,17.36949 -1.23826,4.93364 -3.14741,5.33027 -30.94835,6.42953 -14.26936,0.56422 -29.99284,1.72786 -34.94107,2.58587 -18.58505,3.22259 -33.40441,10.1524 -39.39464,18.42167 -1.5879,2.19203 -5.73435,11.20266 -9.21434,20.02363 -5.56854,14.11496 -6.63105,16.09978 -8.86074,16.55227 -9.32813,1.89303 -18.119135,7.81265 -21.600738,14.54532 l -1.48411,2.8697 h -18.97432 -18.97432 v 7.04966 c 0,8.00971 -1.58039,11.98249 -5.47206,13.75565 -1.64443,0.74926 -7.98213,1.19469 -16.99827,1.19469 -14.00731,0 -14.45517,-0.0664 -17.45294,-2.58889 z m 61.69187,-54.92848 c 2.4715,-2.87329 2.43542,-6.3001 -0.099,-9.40374 -1.91367,-2.34347 -25.28067,-13.10614 -30.93722,-14.24945 -6.37053,-1.28763 -10.32271,-0.0372 -11.75032,3.71773 -1.37386,3.61352 -1.16856,15.62709 0.29974,17.53949 3.35339,4.36768 11.55687,5.93317 28.6637,5.46997 11.08813,-0.30023 11.51976,-0.39621 13.82309,-3.074 z M 152.51089,132.408 c 24.69056,-2.05503 46.03187,-6.15218 45.07219,-8.65307 -0.29584,-0.77093 -1.27606,-3.94093 -2.17827,-7.04444 -1.8072,-6.21653 -8.27076,-22.133106 -11.88203,-29.259626 -1.54965,-3.05807 -3.46348,-5.10681 -5.82052,-6.2308 -9.99089,-4.76433 -36.87797,-7.30195 -68.69137,-6.48315 -29.400248,0.75669 -44.372608,3.04935 -50.284868,7.69993 -1.33458,1.04978 -4.33357,5.86462 -6.66441,10.69963 -4.25269,8.821596 -11.05072,27.663566 -11.05072,30.629046 0,0.98515 1.4189,1.96686 3.75,2.59454 6.86737,1.84913 27.61013,5.00973 38.75,5.90438 15.526013,1.24692 54.762698,1.32855 68.999998,0.14356 z m 161.50999,42.89482 c -3.84465,-9.312 -9.92444,-16.20478 -17.38791,-19.71302 -9.8392,-4.62497 -29.92587,-9.16239 -40.56092,-9.16239 h -3.79412 l 0.48832,-6.82496 c 0.53682,-7.50265 -1.2078,-15.18757 -5.26587,-23.19578 -4.01455,-7.92233 -12.34821,-13.90553 -21.48949,-15.4285 -3.42938,-0.57135 -3.5908,-0.81825 -8,-12.236546 -2.475,-6.40939 -4.65,-12.02711 -4.83333,-12.48382 -0.18334,-0.45672 4.76666,-0.83435 11,-0.83917 21.88182,-0.017 46.56005,-2.34292 65.57035,-6.18013 11.83206,-2.38828 11.24,-0.82876 6.00251,-15.81109 -4.69815,-13.43948 -11.28398,-27.31904 -13.86885,-29.22845 -7.44042,-5.49614 -33.30441,-8.25502 -70.32192,-7.50114 -27.84806,0.56713 -40.51234,2.10728 -48.33727,5.87846 -3.8793,1.86961 -4.72259,2.98686 -8.83772,11.70897 l -4.54921,9.64216 -8.41228,-0.32348 c -4.62675,-0.17791 -8.41228,-0.45498 -8.41228,-0.61571 0,-1.99587 11.42129,-27.38514 13.15581,-29.24509 5.30935,-5.6932605 18.63491,-10.3797204 35.34419,-12.4301704 14.31544,-1.75668997 66.21327,-1.74864997 80,0.0124 17.87016,2.28264 29.35528,6.0798799 34.25316,11.3248404 2.1975,2.35322 8.45582,16.88844 15.29668,35.5272 l 3.39496,9.25 h 7.39525 c 7.21598,0 7.48564,0.0909 11.12443,3.75 4.31419,4.33826 8.53763,15.40124 7.48332,19.60195 -0.97011,3.86525 -2.78855,4.82594 -9.67258,5.11008 -7.15194,0.2952 -7.26802,0.58284 -3.44551,8.53797 2.08107,4.330961 2.17356,5.927376 2.46221,42.498986 0.16495,20.89945 0.0488,38.99949 -0.25811,40.22232 -0.90866,3.6204 -4.52443,6.27869 -8.54017,6.27869 -3.59928,0 -3.65694,-0.0671 -6.98365,-8.12459 z M 303.98274,126.8878 c 4.20966,-2.47305 5.56912,-6.97505 4.55565,-15.08657 -0.86575,-6.92922 -3.08368,-9.37382 -8.50467,-9.37382 -6.72151,0 -30.40858,10.27756 -34.96911,15.17271 -2.92976,3.14473 -2.64608,7.21618 0.68536,9.83669 2.59109,2.03815 3.60421,2.13663 18.75,1.82258 13.94324,-0.28911 16.45928,-0.59538 19.48277,-2.37159 z"
     id="path4546"
     inkscape:connector-curvature="0" />
</svg>
